<!-- <svg enable-background="new 0 0 552 552" version="1.1" viewBox="0 0 552 552" xml:space="preserve" xmlns="http://www.w3.org/2000/svg"><style type="text/css"> .st0{fill:#333333;}.st1{fill:#C0392B;}.st2{fill:#F2F2F2;}</style><circle class="st0" cx="276" cy="276" r="276"/><path class="st1" d="M276,30.1C140.2,30.1,30.1,140.2,30.1,276h491.8C521.9,140.2,411.8,30.1,276,30.1z"/><path class="st2" d="M276,521.9c135.8,0,245.9-110.1,245.9-245.9H30.1C30.1,411.8,140.2,521.9,276,521.9z"/><path class="st0" d="m6.5 283c0 3.7 0.1 7.3 0.2 11h538.5c0.1-3.7 0.2-7.3 0.2-11 0-4.4-0.1-8.7-0.3-13h-538.3c-0.2 4.3-0.3 8.6-0.3 13z"/><circle class="st0" cx="276" cy="283" r="72.8"/><circle class="st2" cx="276" cy="283" r="47.1"/></svg> -->

<svg enable-background="new 0 0 380.1 380.1" version="1.1" viewBox="0 0 380.1 380.1" xml:space="preserve" xmlns="http://www.w3.org/2000/svg"><style type="text/css">.st0{fill:#313131;}.st1{fill:#C0392B;}.st2{fill:#FEFEFE;}.st3{fill:#DD3E36;}</style><path class="st0" d="m20.1 240c-5.5 0-11-0.1-16.4 0.1-2.6 0.1-3.7-0.4-3.7-3.4 0.1-31.1 0.1-62.1 0-93.2 0-2.9 0.8-3.6 3.6-3.5 5.5 0.2 11 0.1 16.4 0 0.2 0.2 0.4 0.5 0.7 0.7 1.7 4.3 0.8 8.9 0.9 13.3 0.2 6.5 0.1 12.9 0 19.4 0 3.6 1.4 5.1 5 5.1 3.3-0.1 6.6-0.2 9.9 0.2 2.3 0.2 4.4 1.1 4.6 3.7 0.4 5.9 1.5 11.9-0.9 17.7-2.6 2.2-5.7 1.5-8.6 1.6-10.9 0.1-10.1-0.9-10.1 10.4v21c0 2.2 0.2 4.3-0.8 6.4-0.1 0-0.4 0.2-0.6 0.5z"/><path class="st0" d="m360.1 140c5.6 0 11.3 0.1 16.9 0 2.3-0.1 3.1 0.5 3.1 3-0.1 31.4-0.1 62.8 0 94.2 0 2.6-1 3-3.2 2.9-5.6-0.1-11.3-0.1-16.9-0.1-0.2-0.2-0.4-0.5-0.6-0.7-1.7-5.2-0.7-10.5-0.8-15.8-0.2-5.6-0.1-11.3 0-16.9 0.1-3.6-1.4-4.9-5-5-4.6-0.1-9.3 1.2-13.6-1.4-2.5-5.9-1.4-12.1-0.9-18.1 0.2-2.4 2.3-3.1 4.4-3.3 3-0.3 6-0.1 9-0.2 5.5-0.1 6-0.5 6.1-6 0.1-8.3 0-16.6 0-24.9 0-2.3-0.2-4.7 0.9-6.8 0.1-0.4 0.4-0.6 0.6-0.9z"/><path class="st0" d="m140.1 20c0-5.7 0.1-11.3 0-17-0.1-2.4 0.7-3 3.1-3 31.3 0.1 62.6 0.1 94 0 2.4 0 3.1 0.6 3.1 3-0.2 5.7 0 11.3 0 17-0.2 0.2-0.5 0.4-0.7 0.7-2.2 1.1-4.5 0.9-6.8 0.9h-84.9c-2.3 0-4.7 0.2-6.9-0.9-0.5-0.2-0.7-0.4-0.9-0.7z"/><path class="st0" d="m240 360c0 5.5-0.1 11 0.1 16.5 0.1 2.7-0.4 3.7-3.4 3.7-31.1-0.1-62.2-0.1-93.2 0-3 0-3.5-1-3.4-3.7 0.2-5.5 0.1-11 0.1-16.5 0.3-0.2 0.5-0.4 0.7-0.6 2.3-1.1 4.9-0.9 7.3-0.9h83.7c2.5 0 5-0.3 7.3 0.9 0.3 0.1 0.5 0.4 0.8 0.6z"/><path class="st0" d="m100.1 40c0-5.5 0.2-11 0-16.5-0.1-2.8 0.8-3.6 3.6-3.6 12.2 0.1 24.3 0.1 36.5 0 2.9 6 1.6 12.3 1 18.5-0.2 1.6-1.6 2.6-3.2 2.7-12.4 0.4-24.7 1.4-37.1-0.5-0.4-0.1-0.6-0.3-0.8-0.6z"/><path class="st0" d="m240.1 20c12.2 0 24.3 0.1 36.5 0 2.8 0 3.7 0.7 3.6 3.6-0.2 5.5-0.1 11 0 16.5-0.2 0.2-0.5 0.4-0.7 0.7-2.3 1.2-4.8 0.9-7.3 0.9h-20.9c-12.8 0-12.8 0-12.7-13-0.1-3-0.7-6.1 1.5-8.7z"/><path class="st0" d="m60.1 60c0-5.5 0.2-11 0-16.5-0.1-2.8 0.8-3.6 3.6-3.6 12.2 0.1 24.3 0.1 36.5 0 2.9 6 1.6 12.3 1 18.5-0.2 1.6-1.6 2.6-3.2 2.7-12.4 0.4-24.7 1.4-37.1-0.5-0.4-0.1-0.6-0.3-0.8-0.6z"/><path class="st0" d="m280.1 40c12.2 0 24.3 0.1 36.5 0 2.8 0 3.7 0.7 3.6 3.6-0.2 5.5-0.1 11 0 16.5-0.2 0.2-0.5 0.4-0.7 0.7-2.3 1.2-4.8 0.9-7.3 0.9h-20.9c-12.8 0-12.8 0-12.7-13-0.1-3-0.7-6.1 1.5-8.7z"/><path class="st0" d="m40.1 100c0-12.2 0.1-24.3 0-36.5 0-2.8 0.7-3.7 3.6-3.6 5.5 0.2 11 0.1 16.5 0 1.5 1.6 1.5 3.6 1.6 5.6 0.1 9.6 0.1 19.2 0 28.8-0.1 5.8-1.3 7.1-7.1 7.1-4.6 0-9.3 0.9-13.8-0.9-0.4 0-0.6-0.2-0.8-0.5z"/><path class="st0" d="m340.1 100c5.5 0 11 0.2 16.5 0 2.8-0.1 3.6 0.8 3.6 3.6-0.1 12.2-0.1 24.3 0 36.5-6 2.9-12.3 1.6-18.5 1-1.6-0.2-2.6-1.6-2.7-3.2-0.4-12.4-1.4-24.7 0.5-37.1 0.1-0.3 0.4-0.5 0.6-0.8z"/><path class="st0" d="m20.1 140c0-12.2 0.1-24.3 0-36.5 0-2.8 0.7-3.7 3.6-3.6 5.5 0.2 11 0.1 16.5 0 1.5 1.6 1.6 3.6 1.6 5.6 0.1 9.6 0.1 19.2 0 28.8-0.1 5.8-1.3 7.2-7 7.1-5 0.1-10.1 1.5-14.7-1.4z"/><path class="st0" d="m320.1 60c5.5 0 11 0.2 16.5 0 2.8-0.1 3.6 0.8 3.6 3.6-0.1 12.2-0.1 24.3 0 36.5-6 2.9-12.3 1.6-18.4 1-1.8-0.2-2.8-1.9-2.8-3.6-0.5-11.7-0.7-23.5 0.1-35.2-0.2-0.9 0.4-1.6 1-2.3z"/><path class="st0" d="m40.1 280c-5.6 0-11.3-0.1-16.9 0.1-2.7 0.1-3.3-0.9-3.2-3.4 0.1-12.3 0.1-24.5 0.1-36.8l-0.1 0.1c6-3.1 12.3-1.6 18.4-1.1 1.8 0.2 2.9 1.8 2.9 3.6 0.2 12.2 1.2 24.4-0.5 36.6-0.2 0.4-0.4 0.6-0.7 0.9z"/><path class="st0" d="m360 240c0 12.3 0 24.5 0.1 36.8 0 2.5-0.5 3.5-3.2 3.4-5.6-0.2-11.3-0.1-16.9-0.1-0.2-0.3-0.4-0.5-0.6-0.8-1.3-3-0.9-6.2-0.9-9.3 0-8.3-0.2-16.6 0.1-24.8 0.2-5.2 1.4-6.6 6.6-6.5 5 0.1 10.3-1.5 15 1.5l-0.2-0.2z"/><path class="st0" d="m60.1 320c-5.6 0-11.3-0.1-16.9 0.1-2.7 0.1-3.3-0.9-3.2-3.4 0.1-12.3 0.1-24.5 0.1-36.8l-0.1 0.1c6-3.1 12.3-1.6 18.4-1.1 1.8 0.2 2.9 1.8 2.9 3.6 0.2 12.2 1.2 24.4-0.5 36.6-0.2 0.4-0.4 0.6-0.7 0.9z"/><path class="st0" d="m340 280c0 12.3 0 24.5 0.1 36.8 0 2.5-0.5 3.5-3.2 3.4-5.6-0.2-11.3-0.1-16.9-0.1-0.2-0.3-0.4-0.5-0.6-0.8-1.3-3-0.9-6.2-0.9-9.3 0-8.3-0.2-16.6 0.1-24.8 0.2-5.2 1.4-6.6 6.6-6.5 5 0.1 10.3-1.5 15 1.5l-0.2-0.2z"/><path class="st0" d="m100.1 340c-12.3 0-24.5 0-36.8 0.1-2.5 0-3.5-0.5-3.4-3.2 0.2-5.6 0.1-11.3 0.1-16.9l-0.1 0.1c1.6-1.5 3.6-1.6 5.6-1.6 9.6-0.1 19.2-0.1 28.8 0 6 0.1 7.2 1.3 7.2 7.4 0 4.4 0.8 8.9-0.8 13.3-0.1 0.3-0.3 0.5-0.6 0.8z"/><path class="st0" d="m320 320c0 5.6-0.1 11.3 0.1 16.9 0.1 2.7-0.9 3.3-3.4 3.2-12.3-0.1-24.5-0.1-36.8-0.1-0.2-0.3-0.4-0.5-0.6-0.8-1.6-5.4-0.9-10.8-0.6-16.2 0.1-2.5 1.6-4.1 4.1-4.2 11.6-0.5 23.1-0.5 34.7 0 1 0.1 1.8 0.7 2.6 1.3l-0.1-0.1z"/><path class="st0" d="m140.1 360c-12.3 0-24.5 0-36.8 0.1-2.5 0-3.5-0.5-3.4-3.2 0.2-5.6 0.1-11.3 0.1-16.9l-0.1 0.1c1.6-1.4 3.6-1.7 5.6-1.7 9.6-0.1 19.3-0.1 28.9 0 5.8 0.1 7.2 1.4 7.1 7.1-0.1 4.9 1.4 10-1.6 14.6l0.2-0.1z"/><path class="st0" d="m280 340c0 5.6-0.1 11.3 0.1 16.9 0.1 2.7-0.9 3.3-3.4 3.2-12.3-0.1-24.5-0.1-36.8-0.1l0.1 0.1c-3.1-6-1.7-12.3-1.1-18.5 0.2-1.8 1.9-2.8 3.6-2.9 11.6-0.6 23.2-0.6 34.8 0 1 0.1 1.8 0.7 2.6 1.3h0.1z"/><path class="st1" d="m320.1 60.1c0 12 0.1 23.9-0.1 35.9 0 3.2 0.8 4.3 4.1 4.2 5.3-0.3 10.6-0.1 15.9-0.1 0 12 0.1 23.9-0.1 35.9 0 3.2 0.8 4.3 4.1 4.2 5.3-0.3 10.6-0.1 15.9-0.1 0 12-0.1 23.9 0.1 35.9 0 3.2-0.8 4.4-4.1 4.2-4.1-0.3-8.3 0.1-12.4-0.1-2.9-0.2-3.7 0.9-3.6 3.7 0.2 5.5 0.1 11 0.1 16.4-0.2 0.2-0.5 0.4-0.7 0.6-5.2 1.6-10.6 0.6-15.9 0.8-5.5 0.2-11 0.2-16.5 0-4.1-0.1-5.6 1.6-5.5 5.6 0.1 4.1 0.7 8.3-0.7 12.4-0.3 0.6-0.8 1-1.3 1.3-0.8 0.3-1.6 0.6-2.4 0.6-17.6 0.3-35.2 0.2-52.8 0.1-3.9 0-5.6-2.2-5.7-6-0.1-2.8-0.2-5.6-0.1-8.5 0.2-4.1-1.7-5.5-5.7-5.5-4.2 0-8.7 1-12.7-1.2-2.6-3.6-1.4-7.7-1.6-11.6-0.2-6.9-0.3-7.1-6.9-7.1h-42.9c-6.9 0-7 0.2-7.2 7.4-0.1 3.7 0.9 7.7-1.4 11.2-4 2.4-8.4 1.2-12.7 1.4-5.2 0.3-5.7 0.6-5.8 5.8-0.1 2.5 0.1 5-0.1 7.5-0.3 5.2-1.5 6.4-6.7 6.7-5.3 0.2-10.7 0.1-16 0.1h-31c-2.3 0-4.7 0.2-6.9-0.6-0.6-0.2-1.1-0.6-1.5-1.1-1.8-4.3-0.9-8.9-1-13.3-0.1-3.6-1.5-5-5.1-5-8.6 0.1-17.3 0-25.9 0-2.3 0-4.7 0.2-6.9-0.8-0.2-0.2-0.5-0.4-0.7-0.6 0-5.5-0.1-11 0.1-16.4 0.1-2.8-0.6-3.8-3.6-3.7-4.3 0.2-8.6-0.1-12.9 0.1-2.9 0.2-3.6-0.9-3.6-3.7 0.1-12.1 0.1-24.2 0.1-36.4 5.5 0 11-0.2 16.4 0 2.9 0.1 3.6-0.9 3.6-3.7-0.1-12.1 0-24.2 0-36.4 5.5 0 11-0.2 16.4 0 2.9 0.1 3.6-0.9 3.6-3.7-0.1-12.1 0-24.2 0-36.4 12 0 23.9-0.1 35.9 0.1 3.2 0 4.3-0.8 4.2-4.1-0.3-5.3-0.1-10.6-0.1-15.9 12 0 23.9-0.1 35.9 0.1 3.2 0 4.3-0.8 4.2-4.1-0.3-5.3-0.1-10.6-0.1-15.9h100c0 5.5 0.2 11 0 16.4-0.1 2.9 0.9 3.6 3.7 3.6 12.1-0.1 24.2 0 36.4 0 0 5.5 0.2 11 0 16.4-0.1 2.9 0.9 3.6 3.7 3.6 12.2-0.3 24.3-0.2 36.5-0.2z"/><path class="st2" d="m280.1 340.1c-12.3 0-24.5 0-36.8-0.1-2.5 0-3.5 0.5-3.4 3.2 0.2 5.6 0.1 11.3 0.1 16.9h-100.1c0-5.6-0.1-11.3 0.1-16.9 0.1-2.7-0.9-3.3-3.4-3.2-12.3 0.1-24.5 0.1-36.8 0.1 0-5.6-0.1-11.3 0.1-16.9 0.1-2.7-0.9-3.3-3.4-3.2-12.3 0.1-24.5 0.1-36.8 0.1 0-12.3 0-24.5 0.1-36.8 0-2.5-0.5-3.5-3.2-3.4-5.6 0.2-11.3 0.1-16.9 0.1 0-12.3 0-24.5 0.1-36.8 0-2.5-0.5-3.5-3.2-3.4-5.6 0.2-11.3 0.1-16.9 0.1 0-12.1 0.1-24.2 0-36.2 0-2.9 0.4-4.1 3.7-3.9 5.4 0.3 10.9 0.1 16.4 0.2l-0.1-0.1c2.6 3.4 1.5 7.3 1.6 11 0.2 7.3 0.2 7.4 7.6 7.4h24.3c2.3 0 4.7-0.1 6.6 1.6l0.2 0.1c2.7 3.6 1.5 7.7 1.6 11.6 0.2 6.5 0.4 6.8 6.8 6.8h44.5c7.7 0 8.7 1 8.8 8.6 0.1 12.8-1 11.3 11.7 11.4 2.3 0 4.7-0.2 6.7 1.3 2.6 3.8 1.4 8 1.5 12.1 0.2 6.2 0.4 6.6 6.5 6.6h43.8c6.3 0 6.5-0.3 6.7-6.9 0.1-3.9-0.9-8 1.4-11.7 3.6-2.4 7.7-1.3 11.6-1.4 6.5-0.2 6.9-0.4 6.9-6.7 0-13.9-0.1-13.4 13.5-13.4h39.8c6.3 0 6.5-0.4 6.7-6.8 0.1-3.9-1.1-8 1.6-11.6l-0.1 0.1c1.9-1.8 4.3-1.6 6.6-1.6h24.3c7.4 0 7.4-0.1 7.6-7.4 0.1-3.7-1-7.7 1.6-11l-0.1 0.1c5.5 0 10.9 0.2 16.4-0.2 3.3-0.2 3.7 1 3.7 3.9-0.1 12.1 0 24.2 0 36.2-5.6 0-11.3 0.1-16.9-0.1-2.7-0.1-3.3 0.9-3.2 3.4 0.1 12.3 0.1 24.5 0.1 36.8-5.6 0-11.3 0.1-16.9-0.1-2.7-0.1-3.3 0.9-3.2 3.4 0.1 12.3 0.1 24.5 0.1 36.8-12.3 0-24.5 0-36.8-0.1-2.5 0-3.5 0.5-3.4 3.2 0.3 5.6 0.2 11.2 0.2 16.8z"/><path class="st3" d="m80.1 140.1c0-11.8 0.1-23.7-0.1-35.5 0-3.4 0.8-4.9 4.5-4.6 3.8 0.3 7.7-0.1 11.5 0.1 3.4 0.2 4.3-1.2 4.2-4.4-0.2-4.2 0-8.3-0.1-12.5-0.1-2.4 0.9-3.3 3.2-3.2 4.2 0.1 8.3-0.1 12.5 0.1 3.2 0.2 4.6-0.8 4.3-4.2-0.2-3.8 0.2-7.7-0.1-11.5-0.3-3.6 1.3-4.5 4.6-4.4 10.3 0.2 20.7-0.1 31 0.1 3.5 0.1 4.8-1 4.5-4.5-0.3-3.8 0.1-7.7-0.1-11.5-0.1-3 0.8-4.1 3.9-4.1 10.8 0.2 21.7 0.1 32.5 0 2.9 0 3.8 1.1 3.7 3.8-0.2 4.3 0 8.7-0.1 13-0.1 2.3 0.9 3.3 3.2 3.2 4.3-0.1 8.7 0.1 13-0.1 2.7-0.1 4 0.8 3.8 3.7-0.2 4.2-0.2 8.3 0 12.5 0.2 3.2-1.2 4-4.1 3.9-10.5-0.1-21 0.1-31.5-0.1-3.5-0.1-4.8 1-4.5 4.5s-0.2 7 0.1 10.5c0.3 3.8-0.8 5.3-4.9 5.1-10.2-0.3-20.3 0.1-30.5-0.2-3.8-0.1-4.8 1.2-4.8 4.9 0 4.9 2.3 11.4-1.1 14.3-3.3 2.9-9.6 0.7-14.5 0.8-6.5 0.1-13 0.2-19.5 0-3.6-0.1-5.2 0.8-4.9 4.7 0.3 3.8-0.1 7.7 0.1 11.5 0.2 3.1-1.1 4-4.1 3.9-5.1 0-10.4 0.1-15.7 0.2z"/><path class="st0" d="m300.1 220c0 5.1-0.3 10.3 0 15.4 0.2 3.6-0.6 4.7-4.5 4.7-17.1-0.3-34.2 0-51.3-0.2-3.4 0-4.7 0.7-4.4 4.3 0.3 4-0.1 8 0.1 11.9 0.2 2.9-0.4 4.1-3.7 3.9-5.5-0.3-11-0.1-16.4-0.2-0.2-0.2-0.4-0.5-0.6-0.7-0.9-1.7-0.9-3.5-0.9-5.4v-47.8c0-1.8 0-3.7 0.9-5.3 0.2-0.2 0.4-0.5 0.7-0.7 5.5 0 11 0.2 16.5 0 2.9-0.1 3.7 0.9 3.6 3.7-0.2 3.8 0.2 7.7-0.1 11.5s0.7 5.1 4.8 5c18.4-0.2 36.9-0.1 55.3-0.1z"/><path class="st0" d="m160.1 260c-5.5 0-11-0.2-16.4 0.2-3.3 0.2-3.9-1-3.7-3.9 0.2-4.1-0.2-8.3 0.1-12.4 0.2-3.2-0.9-3.8-3.9-3.8-17.3 0.1-34.5-0.1-51.8 0.2-3.9 0.1-4.7-1.1-4.5-4.7 0.3-5.1 0-10.3 0-15.4 18.4 0 36.9-0.1 55.3 0.1 4.1 0.1 4.9-1.3 4.8-5-0.1-4.9-2.2-11.5 0.9-14.3 2.7-2.4 9.2-0.7 13.9-0.8h5c0.2 0.2 0.4 0.5 0.7 0.7 0.9 1.7 0.9 3.5 0.9 5.3v47.8c0 1.8 0 3.7-0.8 5.4 0 0.1-0.2 0.3-0.5 0.6z"/><path class="st0" d="m160.1 200c0-5.5 0.1-11 0-16.4 0-2.3 0.2-3.6 3.1-3.6 17.9 0.1 35.9 0.1 53.8 0 2.9 0 3.2 1.3 3.1 3.6-0.1 5.5 0 11 0 16.4-1.9 1.7-4.3 1.6-6.6 1.6h-46.8c-2.3 0-4.7 0.2-6.6-1.6z"/><path class="st0" d="m80.1 220.1c-12.1 0-24.1-0.1-36.2 0-2.9 0-4.1-0.5-3.9-3.7 0.3-5.4 0-10.9 0-16.4 12 0 24 0.1 36-0.1 3.3-0.1 4.3 0.9 4.2 4.2-0.3 5.3-0.1 10.7-0.1 16z"/><path class="st0" d="m340.1 200c0 5.5-0.3 10.9 0 16.4 0.2 3.2-1 3.8-3.9 3.7-12.1-0.1-24.1 0-36.2 0 0-5.5 0.2-11-0.1-16.5-0.1-2.9 0.8-3.7 3.6-3.6 12.3 0.1 24.5 0 36.6 0z"/><path class="st3" d="m80.1 140c0 5.3-0.1 10.6 0.1 15.9 0.1 2.9-0.7 4.2-3.9 4.1-20.4-0.8-15.4 4.2-16.2-16.2-0.1-3.2 1.2-4 4.1-3.9 5.3 0.3 10.6 0.2 15.9 0.1v0z"/><path class="st0" d="m220 260c0 5.5-0.1 11 0.1 16.4 0.1 2.6-0.4 3.7-3.4 3.7-17.8-0.2-35.5-0.2-53.3 0-3 0-3.5-1.1-3.4-3.7 0.2-5.5 0.1-11 0.1-16.4l-0.1 0.1c1.9-1.7 4.3-1.7 6.6-1.7h46.9c2.3 0 4.7 0 6.6 1.7l-0.1-0.1z"/><path class="st2" d="m220.1 260.1h-60.1c0-20 0.1-40 0.1-60.1h60v60.1z"/></svg>
